<?xml version="1.0" standalone="no"?>
<svg class="icon" viewBox="65 80 200 100" version="1.1" xmlns="http://www.w3.org/2000/svg"
     id="Blood" width="1024" height="1024">
	<g data-v-2cb57da0="" fill="#56c5d0" class="iconlinesvg-g iconlinesvg"
	   transform="translate(93.99260711669922,86.38922882080078)">
		<g class="tp-name" transform="translate(0,0)">
			<g transform="translate(0, 0)">
				<g>
					<g class="imagesvg">
						<g>
							<rect fill="#56c5d0" fill-opacity="0" stroke-width="2" x="0" y="0" width="43.74627612091944"
							      height="60.629038058762426" class="image-rect"></rect>
							<svg x="0" y="0" width="43.74627612091944" height="60.629038058762426"
							     filtersec="colorsb7979721624" class="image-svg-svg primary" style="overflow: visible;">
								<svg xmlns="http://www.w3.org/2000/svg"
								     viewBox="-0.0014464911073446274 -0.0009052228997461498 249.8798065185547 346.3126220703125">
									<defs>
										<radialGradient id="a4c8ebc1f-c562-4cf9-b56e-bfb94791596f" cx="124.94"
										                cy="173.16" r="146.26" gradientUnits="userSpaceOnUse">
											<stop offset="0" stop-color="#f5fcfc"></stop>
											<stop offset=".07" stop-color="#dff4f6"></stop>
											<stop offset=".22" stop-color="#b5e6ea"></stop>
											<stop offset=".37" stop-color="#93dae1"></stop>
											<stop offset=".52" stop-color="#78d1d9"></stop>
											<stop offset=".67" stop-color="#65cad4"></stop>
											<stop offset=".83" stop-color="#5ac6d1"></stop>
											<stop offset="1" stop-color="#56c5d0"></stop>
										</radialGradient>
									</defs>
									<g>
										<g>
											<path d="M124.94 346.31a121.15 121.15 0 0 1-48.49-9.87 126.58 126.58 0 0 1-66.58-66.58A121.14 121.14 0 0 1 0 221.37V38.52A37.21 37.21 0 0 1 3.13 23.6a39.53 39.53 0 0 1 8.23-12.24 40.19 40.19 0 0 1 12-8.21A36.86 36.86 0 0 1 38.53 0a36.81 36.81 0 0 1 15.12 3.15 40 40 0 0 1 12 8.21A37.2 37.2 0 0 1 73.8 23.7a38.79 38.79 0 0 1 2.93 14.83v118.84a84.3 84.3 0 0 1 17.09-9.8 81 81 0 0 1 62.43.17 80.28 80.28 0 0 1 42.32 42.32 80.48 80.48 0 0 1 0 62.62 83.49 83.49 0 0 1-17 25.38 80.16 80.16 0 0 1-25.28 17.26 80.44 80.44 0 0 1-62.61 0A81.47 81.47 0 0 1 51 252.68a78 78 0 0 1-6.34-31.31V38.52a6.18 6.18 0 0 0-6.13-6.13A6.28 6.28 0 0 0 34 34.28a5.47 5.47 0 0 0-1.89 4.24v182.85a89.44 89.44 0 0 0 7.31 36A94.88 94.88 0 0 0 89 306.93a92.25 92.25 0 0 0 72 0 94.87 94.87 0 0 0 49.57-49.57 92.27 92.27 0 0 0 0-72A94.88 94.88 0 0 0 161 135.79a87.8 87.8 0 0 0-28.05-7h-.14a16.3 16.3 0 0 1-11.11-4.47l-1.48-1.42v-.25a16.05 16.05 0 0 1 12.32-26h.25a14.61 14.61 0 0 1 1.5.09h.37a119.7 119.7 0 0 1 38.84 9.52 126.6 126.6 0 0 1 66.5 66.62 124 124 0 0 1 0 97 126.6 126.6 0 0 1-66.58 66.58 121.11 121.11 0 0 1-48.48 9.85zm0-173.16a46.6 46.6 0 0 0-18.65 3.78 48.88 48.88 0 0 0-25.78 25.78 47.9 47.9 0 0 0 0 37.31 48.89 48.89 0 0 0 25.78 25.78 47.92 47.92 0 0 0 37.32 0 48.88 48.88 0 0 0 25.77-25.8 47.9 47.9 0 0 0 0-37.31 48.88 48.88 0 0 0-25.78-25.78 46.6 46.6 0 0 0-18.66-3.76z"
											      fill="#56c5d0"></path>
											<path d="M235.62 174.79a121.79 121.79 0 0 0-64.09-64.09 114.38 114.38 0 0 0-37.41-9.14h-.26a10.61 10.61 0 0 0-1.11-.07h-.05a11.25 11.25 0 0 0-7.73 19.38 11.52 11.52 0 0 0 7.8 3.14h.23a92.21 92.21 0 0 1 29.89 7.39 99.68 99.68 0 0 1 52 52 97 97 0 0 1 0 75.82 99.67 99.67 0 0 1-52 52 93.71 93.71 0 0 1-37.95 7.78A93.72 93.72 0 0 1 87 311.32a99.66 99.66 0 0 1-52-52 93.75 93.75 0 0 1-7.71-37.91V38.52a10.26 10.26 0 0 1 3.37-7.71 11 11 0 0 1 7.87-3.21 11 11 0 0 1 10.92 10.92v182.85a72.88 72.88 0 0 0 5.94 29.4 76.67 76.67 0 0 0 40.16 40.16 75.65 75.65 0 0 0 58.79 0 75 75 0 0 0 23.77-16.22 78.35 78.35 0 0 0 16.06-23.93 75.68 75.68 0 0 0 0-58.79 75.5 75.5 0 0 0-39.84-39.84 72.76 72.76 0 0 0-29.4-5.94A73.44 73.44 0 0 0 95.71 152a78 78 0 0 0-23.77 15.74V38.52a33.89 33.89 0 0 0-2.57-13 32.31 32.31 0 0 0-7.07-10.77 35.08 35.08 0 0 0-10.6-7.23 31.89 31.89 0 0 0-13.17-2.73 32 32 0 0 0-13.18 2.73 35.22 35.22 0 0 0-10.6 7.23 34.62 34.62 0 0 0-7.23 10.76 32.32 32.32 0 0 0-2.73 13v182.86A115.85 115.85 0 0 0 14.27 268a121.8 121.8 0 0 0 64.09 64 115.84 115.84 0 0 0 46.58 9.48 115.81 115.81 0 0 0 46.59-9.48 121.79 121.79 0 0 0 64.09-64 119.22 119.22 0 0 0 0-93.16zm-159.51 26a53.67 53.67 0 0 1 28.27-28.27 52.71 52.71 0 0 1 41.12 0 53.67 53.67 0 0 1 28.27 28.27 52.69 52.69 0 0 1 0 41.12 53.66 53.66 0 0 1-28.27 28.27 52.71 52.71 0 0 1-41.12 0 53.67 53.67 0 0 1-28.27-28.27 52.69 52.69 0 0 1 0-41.12z"
											      fill="url(#a4c8ebc1f-c562-4cf9-b56e-bfb94791596f)"></path>
										</g>
									</g>
								</svg>
							</svg> <!---->
						</g>
					</g>
				</g>
			</g>
			<g transform="translate(49, 8.35286258766342)">
				<g data-gra="path-name" fill="#56c5d0" transform="scale(0.86)">
					<path d="M4.69-50.52L11.04-50.52L11.04 0L4.69 0L4.69-50.52Z"
					      transform="translate(-4.693251533742331, 50.52147239263804)"></path>
				</g>
			</g>
			<g transform="translate(58, 8.35286258766342)">
				<g data-gra="path-name" fill="#56c5d0" transform="scale(0.86)">
					<path d="M2.48-18.50L2.48-18.50Q3.59-37.27 19.60-38.10L19.60-38.10Q35.61-37.27 36.72-18.50L36.72-18.50Q35.61 0 19.60 0.55L19.60 0.55Q3.59 0 2.48-18.50ZM8.83-18.50L8.83-18.50Q9.66-4.69 19.60-4.42L19.60-4.42Q29.54-4.69 30.37-18.50L30.37-18.50Q29.54-32.30 19.60-32.58L19.60-32.58Q9.66-32.30 8.83-18.50Z"
					      transform="translate(-2.484662576687116, 50.52147239263804)"></path>
				</g>
			</g>
			<g transform="translate(91, 8.35286258766342)">
				<g data-gra="path-name" fill="#56c5d0" transform="scale(0.86)">
					<path d="M2.48-18.50L2.48-18.50Q3.59-37.27 19.60-38.10L19.60-38.10Q35.61-37.27 36.72-18.50L36.72-18.50Q35.61 0 19.60 0.55L19.60 0.55Q3.59 0 2.48-18.50ZM8.83-18.50L8.83-18.50Q9.66-4.69 19.60-4.42L19.60-4.42Q29.54-4.69 30.37-18.50L30.37-18.50Q29.54-32.30 19.60-32.58L19.60-32.58Q9.66-32.30 8.83-18.50Z"
					      transform="translate(-2.484662576687116, 50.52147239263804)"></path>
				</g>
			</g>
			<g transform="translate(124, 8.35286258766342)">
				<g data-gra="path-name" fill="#56c5d0" transform="scale(0.86)">
					<path d="M28.99-50.52L35.06-50.52L35.06 0L29.26 0L29.26-4.97Q25.95 0.55 18.77 0.55L18.77 0.55Q3.31 0 2.48-19.60L2.48-19.60Q3.31-37.27 17.94-38.10L17.94-38.10Q23.74-38.10 28.44-32.58L28.44-32.58Q28.71-32.02 28.99-31.75L28.99-31.75L28.99-32.02L28.99-50.52ZM8.83-18.50L8.83-18.50Q9.39-4.69 18.77-4.14L18.77-4.14Q28.71-5.25 28.99-16.56L28.99-16.56Q28.99-32.30 19.05-32.30L19.05-32.30Q8.56-32.30 8.83-18.50Z"
					      transform="translate(-2.484662576687116, 50.52147239263804)"></path>
				</g>
			</g>
		</g>
		<g data-gra="path-slogan" fill-rule="" class="tp-slogan" fill="#56c5d0"
		   transform="translate(5,66.6290397644043)">
			<rect x="0" height="1" y="4.795000076293945" width="56.77739238739014"></rect>
			<rect height="1" y="4.795000076293945" width="56.77739238739014" x="85.23739337921143"></rect>
			<g transform="translate(59.77739238739014,0)">
				<g transform="scale(1)">
					<path d="M6.70-6.47L5.34-6.47L5.34-0.33L6.70-0.33L6.70-6.47ZM8.95-6.47L7.64-6.47L7.64-0.33L8.95-0.33L8.95-6.47ZM4.36-6.47L3.09-6.47L3.09-0.33L4.36-0.33L4.36-6.47ZM4.92-9.28L4.92-9.28Q6.19-9.28 6.23-9.05L6.23-9.05Q6.23-8.95 6.14-8.81L6.14-8.81Q5.77-8.34 5.44-7.31L5.44-7.31L8.77-7.31Q9.23-7.31 10.03-7.36L10.03-7.36Q9.98-6.66 9.98-6.23L9.98-6.23L9.98-0.38L10.36-0.38Q10.78-0.38 11.44-0.42L11.44-0.42L11.44 0.47Q11.44 0.47 10.41 0.42L10.41 0.42L1.73 0.42Q0.84 0.42 0.56 0.47L0.56 0.47L0.56-0.38Q0.56-0.38 1.69-0.33L1.69-0.33L2.06-0.33L2.06-6.14Q2.06-6.66 2.02-7.36L2.02-7.36Q2.58-7.31 3.38-7.31L3.38-7.31L4.41-7.31Q4.64-7.83 4.83-8.91L4.83-8.91Q4.88-9.14 4.92-9.28ZM17.39-9.33L18.66-9.56Q18.80-9.14 18.89-8.25L18.89-8.25L20.91-8.25Q21.52-8.25 22.36-8.39L22.36-8.39Q22.73-8.44 22.92-8.44L22.92-8.44L22.92-7.31Q22.69-7.31 22.13-7.31L22.13-7.31Q21.47-7.36 21.14-7.36L21.14-7.36L14.67-7.36L14.67-5.44Q14.63-1.36 13.41 0.84L13.41 0.84Q13.03 0.33 12.52 0.14L12.52 0.14Q13.73-1.50 13.73-5.30L13.73-5.30L13.73-7.27Q13.73-8.20 13.64-8.30L13.64-8.30Q14.16-8.25 14.77-8.25L14.77-8.25L17.86-8.25Q17.77-8.63 17.39-9.33L17.39-9.33ZM17.77-7.13L17.77-7.13Q18.94-6.80 18.89-6.70L18.89-6.70Q18.89-6.66 18.80-6.61L18.80-6.61Q18.56-6.47 18.38-6.19L18.38-6.19L21.09-6.19Q21.75-6.19 22.69-6.28L22.69-6.28L22.69-5.25Q21.75-5.34 21.14-5.34L21.14-5.34L17.86-5.34Q17.72-5.16 17.53-4.88L17.53-4.88Q16.97-4.08 16.64-3.70L16.64-3.70L18.66-3.70L18.66-4.27Q18.66-4.59 18.61-5.06L18.61-5.06Q19.78-4.97 19.78-4.88L19.78-4.88Q19.78-4.83 19.73-4.73L19.73-4.73Q19.59-4.50 19.59-4.08L19.59-4.08L19.59-3.70L20.86-3.70Q21.19-3.70 21.89-3.80L21.89-3.80Q22.13-3.84 22.27-3.84L22.27-3.84L22.27-2.77Q21.66-2.86 20.81-2.86L20.81-2.86L19.59-2.86L19.59-1.73L21.47-1.73Q21.98-1.73 22.92-1.83L22.92-1.83Q22.83-1.83 23.02-1.83L23.02-1.83L23.02-0.84Q22.83-0.84 22.45-0.84L22.45-0.84Q21.89-0.89 21.47-0.89L21.47-0.89L19.59-0.89L19.59-0.28Q19.59 0.66 19.69 1.03L19.69 1.03L18.56 1.03Q18.66 0.42 18.66-0.33L18.66-0.33L18.66-0.89L16.83-0.89Q15.61-0.89 14.95-0.80L14.95-0.80L14.95-1.83Q15.84-1.73 16.83-1.73L16.83-1.73L18.66-1.73L18.66-2.86L16.41-2.86Q16.22-2.86 15.84-2.77L15.84-2.77Q15.66-2.72 15.66-2.72L15.66-2.72L15.38-3.66Q15.98-3.84 16.92-5.39L16.92-5.39L16.45-5.39Q15.66-5.39 15.14-5.30L15.14-5.30L15.14-6.28Q15.98-6.19 16.59-6.19L16.59-6.19L17.25-6.19Q17.44-6.47 17.67-6.89L17.67-6.89Q17.72-7.03 17.77-7.13Z"
					      transform="translate(-0.5625, 9.5625)"></path>
				</g>
			</g>
		</g>
	</g>
</svg>
